<svg version="1.1" xmlns="http://www.w3.org/2000/svg" xmlns:xlink="http://www.w3.org/1999/xlink" x="0px" y="0px" width="49.8px" height="49.8px" viewBox="0 0 49.8 49.8" enable-background="new 0 0 49.8 49.8" xml:space="preserve">
  <g id="WhiteFullCircle">
    <path fill="#CCCCCC" d="M24.9,0C11.2,0,0,11.2,0,24.9c0,13.7,11.2,24.9,24.9,24.9c13.7,0,24.9-11.2,24.9-24.9
		C49.8,11.2,38.7,0,24.9,0z M24.9,46.8C12.8,46.8,3,37,3,24.9C3,12.8,12.8,3,24.9,3C37,3,46.8,12.8,46.8,24.9
		C46.8,37,37,46.8,24.9,46.8z" />
    <path fill="#ff3399" d="M3,24.9C3,12.8,12.8,3,24.9,3V0C11.2,0,0,11.2,0,24.9c0,0.5,0,0.9,0,1.4h3C3,25.8,3,25.4,3,24.9z" class="spinner">
    </path>
  </g>
</svg>
