<svg version="1.1" xmlns="http://www.w3.org/2000/svg" xmlns:xlink="http://www.w3.org/1999/xlink" x="0px" y="0px" viewBox="0 0 1000 1000" enable-background="new 0 0 1000 1000" xml:space="preserve">
<g><path fill="#ac1cb0" id="dislike" d="M971.8,417.7c-22.3-34.7-60.4-54.2-99.7-55.3c-1.6-0.2-129.9-0.4-129.9-0.4l-102.7-0.1c15.4-42.6,23.8-88.3,23.8-136c0-30.9,0.8-41.4-10.8-89.9c-15.8-51.5-59.3-88.6-115.7-88.6c-68.5,0-111,57.5-114.6,108.6c-2.4,34.3-6.1,53.9-6.5,56.1c-20,132.7-99.6,180.1-224.1,188.7c0,0-138.7,0.7-140.4,0.7c-22.5,0-40.8,17.6-40.8,39.3l0,40.5l-0.1,159.3L10,913.2c0,21.7,18.3,38.1,40.8,38.1c2.2,0,726.8,0.9,726.8,0.9c25.1,1.9,51-3.8,73.8-17.8c19.4-11.9,31.8-28.3,41.2-46.8c26.8-86.7,26.8-86,92.9-374.4c0,0,4.4-20.7,4.1-24.8C991.6,464.4,985.9,439.7,971.8,417.7z M204.3,639.8l-0.2,282.2c0,0-136.3,0-143.3,0c-21.3,0.2-19.3-15.9-19.3-15.9l0.2-266L42,444c0,0-1.3-10.1,9.9-10c2.2,0,152.6-0.2,152.6-0.2L204.3,639.8z M951.9,509.2c-40.7,171.4-58.7,292.7-95.2,369.7c-13.3,28.1-30,34.4-64.7,41.1c-24,4.6-557.3,2.1-557.3,2.1l0.2-282.6l0.2-205.9c0,0,113.6-12.5,165-87.2c25.8-37.5,28.1-49.5,57.3-200.8c5.5-28.6,34.5-63.9,83.3-62.8c71.5,1.6,81.7,60.3,84.4,80.5c17.9,131.9-19.9,183-18.7,212.9c3,15.1,22,16.9,22,16.9l114.5,0.1l131.1,0.1c43,8.6,66.6,39.3,73.1,52.4C953.7,458.9,957.5,485.5,951.9,509.2z"/></g>
</svg>
